<svg xmlns="http://www.w3.org/2000/svg" xmlns:xlink="http://www.w3.org/1999/xlink" width="1963" height="522" version="1.1" viewBox="0 0 1963 522"><title>Group 3</title><desc>Created with Sketch.</desc><g id="Page-2" fill="none" fill-rule="evenodd" stroke="none" stroke-width="1"><g id="Group-3" transform="translate(0.873069, 0.373069)"><g id="Group-2" transform="translate(1242.000000, 313.000000)"><rect id="Rectangle-2-Copy-6" width="208" height="208" x="0" y="0" fill="#E64B17" transform="translate(104.000000, 104.000000) scale(-1, 1) translate(-104.000000, -104.000000)"/><circle id="Oval-3" cx="104" cy="104" r="52" stroke="#1F2555" stroke-width="30"/></g><g id="Group-8" fill="#E64B17" transform="translate(565.545381, 312.545381)"><path id="Combined-Shape" d="M208,0 L208,208 L-1.42108547e-13,208 L-1.42108547e-13,0 L208,0 Z M156,52 L52,52 L52,156 L156,156 L156,52 Z"/></g><circle id="Oval-3" cx="877.545" cy="416.545" r="52" stroke="#FFCC4C" stroke-width="30"/><circle id="Oval-3-Copy" cx="1814" cy="416" r="52" stroke="#E64B17" stroke-width="30"/><g id="Group-10" transform="translate(45.545381, 311.545381)"><rect id="Rectangle" width="208" height="208" x="260" y="0" fill="#099"/><g id="Group-9" transform="translate(0.000000, 1.000000)"><g id="Group"><rect id="Rectangle-2-Copy-5" width="208" height="208" x="0" y="0" fill="#161B3D" transform="translate(104.000000, 104.000000) scale(-1, 1) translate(-104.000000, -104.000000)"/><rect id="Rectangle-2" width="104" height="104" x="52" y="52" fill="#FFCC4D" transform="translate(104.000000, 104.000000) scale(-1, 1) rotate(45.000000) translate(-104.000000, -104.000000)"/></g></g></g><g id="Group-11" fill="#099" transform="translate(981.545381, 312.545381)"><path id="Combined-Shape" d="M208,0 L208,208 L-1.42108547e-13,208 L-1.42108547e-13,0 L208,0 Z M104,30.4608948 L30.4608948,104 L104,177.539105 L177.539105,104 L104,30.4608948 Z"/></g><rect id="Rectangle-2" width="1962" height="312" x="0" y=".545" fill="#161B3D" transform="translate(981.000000, 156.545381) scale(-1, 1) translate(-981.000000, -156.545381)"/><g id="Group-2" fill="#FED161" transform="translate(1502.000000, 313.000000)"><rect id="Rectangle-2-Copy-6" width="208" height="208" x="0" y="0" transform="translate(104.000000, 104.000000) scale(-1, 1) translate(-104.000000, -104.000000)"/></g></g></g></svg>