<svg xmlns="http://www.w3.org/2000/svg" xmlns:xlink="http://www.w3.org/1999/xlink" width="24" height="24" version="1.1" viewBox="0 0 24 24"><title>Icon/utility/Indigo/24px/Calendar</title><desc>Created with Sketch.</desc><g id="Symbols" fill="none" fill-rule="evenodd" stroke="none" stroke-width="1"><g id="Icon/utility/Indigo/24px/Calendar"><rect id="Rectangle-6" width="24" height="24" x="0" y="0"/><g id="Page-1" fill="#1F2555" transform="translate(2.000000, 1.000000)"><path id="Fill-1" d="M2,19.1253 L18,19.1253 L18,8.1253 L2,8.1253 L2,19.1253 Z M18,1.6253 L17.062,1.6253 L17.062,0.0003 L15.062,0.0003 L15.062,1.6253 L4.937,1.6253 L4.937,0.0003 L2.937,0.0003 L2.937,1.6253 L2,1.6253 C0.895,1.6253 0,2.5203 0,3.6253 L0,19.1253 C0,20.2293 0.895,21.1253 2,21.1253 L18,21.1253 C19.104,21.1253 20,20.2293 20,19.1253 L20,3.6253 C20,2.5203 19.104,1.6253 18,1.6253 L18,1.6253 Z"/><polygon id="Fill-3" points="4.292 12.125 15.708 12.125 15.708 10.125 4.292 10.125"/><polygon id="Fill-4" points="4.292 16.458 13.292 16.458 13.292 14.458 4.292 14.458"/></g></g></g></svg>