<svg xmlns="http://www.w3.org/2000/svg" xmlns:xlink="http://www.w3.org/1999/xlink" width="24" height="24" version="1.1" viewBox="0 0 24 24"><title>Icon/utility/Indigo/24px/Copy-to-clipboard</title><desc>Created with Sketch.</desc><g id="Symbols" fill="none" fill-rule="evenodd" stroke="none" stroke-width="1"><g id="Icon/utility/Indigo/24px/Copy-to-clipboard"><rect id="Rectangle-6" width="24" height="24" x="0" y="0"/><path id="Clipboard" fill="#1F2555" d="M19,20 C19,20.55 18.55,21 18,21 L6,21 C5.45,21 5,20.55 5,20 L5,6 C5,5.45 5.45,5 6,5 L7,5 C7,6.1 7.9,7 9,7 L15,7 C16.1,7 17,6.1 17,5 L18,5 C18.55,5 19,5.45 19,6 L19,20 Z M9,3 L15,3 L15,5 L9,5 L9,4.037 L9,3.999 L9,3.961 L9,2.998 L9,3 Z M18,3 L17,3 C17,1.9 16.1,1 15,1 L9,1 C7.9,1 7,1.9 7,3 L6,3 C4.344,3 3,4.344 3,6 L3,20 C3,21.656 4.344,23 6,23 L18,23 C19.656,23 21,21.656 21,20 L21,6 C21,4.344 19.656,3 18,3 L18,3 Z"/><path id="Fill-3" fill="#1F2555" d="M13,13 L13,11 C13,10.45 12.55,10 12,10 C11.45,10 11,10.45 11,11 L11,13 L9,13 C8.45,13 8,13.45 8,14 C8,14.55 8.45,15 9,15 L11,15 L11,17 C11,17.55 11.45,18 12,18 C12.55,18 13,17.55 13,17 L13,15 L15,15 C15.55,15 16,14.55 16,14 C16,13.45 15.55,13 15,13 L13,13 Z"/></g></g></svg>