<svg xmlns="http://www.w3.org/2000/svg" xmlns:xlink="http://www.w3.org/1999/xlink" width="24" height="24" version="1.1" viewBox="0 0 24 24"><title>Icon/utility/Indigo/24px/More</title><desc>Created with Sketch.</desc><g id="Symbols" fill="none" fill-rule="evenodd" stroke="none" stroke-width="1"><g id="Icon/utility/Indigo/24px/More"><rect id="Rectangle-6" width="24" height="24" x="0" y="0"/><g id="Page-1" fill="#1F2555" transform="translate(2.000000, 10.000000)"><path id="Fill-1" d="M12.0694,2 C12.0694,3.104 11.1734,4 10.0694,4 C8.9654,4 8.0694,3.104 8.0694,2 C8.0694,0.896 8.9654,0 10.0694,0 C11.1734,0 12.0694,0.896 12.0694,2"/><path id="Fill-3" d="M4.0001,2 C4.0001,3.104 3.1041,4 2.0001,4 C0.8961,4 0.0001,3.104 0.0001,2 C0.0001,0.896 0.8961,0 2.0001,0 C3.1041,0 4.0001,0.896 4.0001,2"/><path id="Fill-5" d="M20.1388,2 C20.1388,3.104 19.2428,4 18.1388,4 C17.0348,4 16.1388,3.104 16.1388,2 C16.1388,0.896 17.0348,0 18.1388,0 C19.2428,0 20.1388,0.896 20.1388,2"/></g></g></g></svg>